<svg xmlns="http://www.w3.org/2000/svg" viewBox="0 0 64 64" width="64" height="64">
  <defs>
    <linearGradient id="tile" x1="6" y1="2" x2="58" y2="62" gradientUnits="userSpaceOnUse">
      <stop offset="0" stop-color="#0c4a38"/>
      <stop offset="0.55" stop-color="#0a3d2e"/>
      <stop offset="1" stop-color="#072b20"/>
    </linearGradient>
    <linearGradient id="spark" x1="14" y1="8" x2="50" y2="58" gradientUnits="userSpaceOnUse">
      <stop offset="0" stop-color="#7dffc6"/>
      <stop offset="0.5" stop-color="#18e08c"/>
      <stop offset="1" stop-color="#0fbf74"/>
    </linearGradient>
    <radialGradient id="glow" cx="50%" cy="38%" r="62%">
      <stop offset="0" stop-color="#18e08c" stop-opacity="0.45"/>
      <stop offset="1" stop-color="#18e08c" stop-opacity="0"/>
    </radialGradient>
  </defs>
  <rect width="64" height="64" rx="15" fill="url(#tile)"/>
  <rect width="64" height="64" rx="15" fill="url(#glow)"/>
  <g transform="translate(32 32) scale(0.66) translate(-32 -32)">
    <path d="M32 3c1.4 17.6 9 25.2 26.6 26.6C41 31 33.4 38.6 32 56.2 30.6 38.6 23 31 5.4 29.6 23 28.2 30.6 20.6 32 3Z" fill="url(#spark)"/>
    <path d="M52 4c.5 5.6 3 8.1 8.6 8.6C55 13.1 52.5 15.6 52 21.2 51.5 15.6 49 13.1 43.4 12.6 49 12.1 51.5 9.6 52 4Z" fill="url(#spark)" opacity="0.85"/>
  </g>
</svg>
